<svg width="42" height="42" fill="none" xmlns="http://www.w3.org/2000/svg"><g filter="url(#filter0_d_97_12)"><circle cx="20.5" cy="20.5" r="20.5" fill="#8EFF8C"/><circle cx="20.5" cy="20.5" r="19.5" stroke="#000" stroke-width="2"/></g><path d="M23.273 25.163c0-.33-.05-.626-.152-.889a1.678 1.678 0 00-.533-.736c-.262-.228-.63-.453-1.105-.673a15.631 15.631 0 00-1.84-.685 23.271 23.271 0 01-2.387-.914 9.807 9.807 0 01-1.98-1.181 5.32 5.32 0 01-1.346-1.587c-.322-.6-.483-1.3-.483-2.095 0-.77.17-1.468.508-2.094a4.82 4.82 0 011.422-1.625c.61-.457 1.329-.809 2.158-1.054.838-.246 1.756-.368 2.755-.368 1.363 0 2.552.245 3.567.736 1.016.49 1.803 1.164 2.362 2.019.567.854.85 1.832.85 2.932h-3.783c0-.541-.114-1.015-.343-1.422a2.32 2.32 0 00-1.015-.977c-.449-.237-1.016-.356-1.701-.356-.66 0-1.21.102-1.65.305-.44.195-.771.461-.991.8-.22.33-.33.702-.33 1.117 0 .313.076.597.228.85.161.255.398.492.711.712.314.22.699.427 1.156.622.457.194.986.385 1.587.57 1.007.306 1.891.648 2.653 1.03.77.38 1.413.808 1.93 1.281a4.768 4.768 0 011.168 1.613c.262.6.393 1.282.393 2.044 0 .804-.157 1.523-.47 2.158a4.432 4.432 0 01-1.358 1.612c-.593.44-1.3.775-2.12 1.003-.821.229-1.74.343-2.755.343a10.45 10.45 0 01-2.704-.356 8.212 8.212 0 01-2.425-1.104 5.566 5.566 0 01-1.727-1.879c-.431-.762-.647-1.663-.647-2.704h3.821c0 .576.09 1.062.267 1.46.178.398.427.72.749.965.33.245.72.423 1.168.533.457.11.956.165 1.498.165.66 0 1.202-.093 1.625-.28.431-.185.749-.444.952-.774a2.02 2.02 0 00.317-1.117z" fill="#000"/><defs><filter id="filter0_d_97_12" x="0" y="0" width="42" height="42" filterUnits="userSpaceOnUse" color-interpolation-filters="sRGB"><feFlood flood-opacity="0" result="BackgroundImageFix"/><feColorMatrix in="SourceAlpha" values="0 0 0 0 0 0 0 0 0 0 0 0 0 0 0 0 0 0 127 0" result="hardAlpha"/><feOffset dx="1" dy="1"/><feComposite in2="hardAlpha" operator="out"/><feColorMatrix values="0 0 0 0 0 0 0 0 0 0 0 0 0 0 0 0 0 0 1 0"/><feBlend in2="BackgroundImageFix" result="effect1_dropShadow_97_12"/><feBlend in="SourceGraphic" in2="effect1_dropShadow_97_12" result="shape"/></filter></defs></svg>