<svg width="51" height="51" fill="none" xmlns="http://www.w3.org/2000/svg"><path fill-rule="evenodd" clip-rule="evenodd" d="M15.863 2.265c2.493-.115 3.288-.14 9.637-.14 6.35 0 7.144.028 9.635.14 2.49.113 4.19.51 5.678 1.086a11.499 11.499 0 014.14 2.699 11.416 11.416 0 012.694 4.137c.578 1.488.973 3.188 1.088 5.674.114 2.497.14 3.292.14 9.639 0 6.35-.028 7.144-.14 9.637-.113 2.486-.51 4.186-1.088 5.674a11.467 11.467 0 01-2.695 4.141 11.46 11.46 0 01-4.14 2.695c-1.487.578-3.187.973-5.673 1.088-2.495.114-3.29.14-9.639.14-6.35 0-7.144-.028-9.637-.14-2.486-.113-4.186-.51-5.674-1.088a11.468 11.468 0 01-4.141-2.695 11.457 11.457 0 01-2.697-4.14c-.576-1.487-.971-3.187-1.086-5.673-.115-2.497-.14-3.292-.14-9.639 0-6.35.028-7.144.14-9.635.113-2.49.51-4.19 1.086-5.678a11.466 11.466 0 012.699-4.14 11.458 11.458 0 014.137-2.696c1.488-.576 3.188-.971 5.674-1.086h.002zm19.083 4.208c-2.465-.113-3.205-.136-9.446-.136s-6.98.023-9.446.136c-2.28.104-3.516.484-4.341.805-1.09.425-1.87.929-2.688 1.747a7.251 7.251 0 00-1.747 2.688c-.32.825-.701 2.061-.805 4.341-.113 2.465-.136 3.205-.136 9.446s.023 6.98.136 9.446c.104 2.28.484 3.517.805 4.341a7.256 7.256 0 001.747 2.688 7.255 7.255 0 002.688 1.747c.825.32 2.061.701 4.341.805 2.465.113 3.203.136 9.446.136s6.98-.023 9.446-.136c2.28-.104 3.517-.484 4.341-.805 1.09-.425 1.87-.929 2.688-1.747a7.255 7.255 0 001.747-2.688c.32-.825.701-2.061.805-4.341.113-2.465.136-3.205.136-9.446s-.023-6.98-.136-9.446c-.104-2.28-.484-3.516-.805-4.341-.425-1.09-.929-1.87-1.747-2.688a7.252 7.252 0 00-2.688-1.747c-.825-.32-2.061-.701-4.341-.805zM22.514 32.706a7.797 7.797 0 008.5-12.72 7.8 7.8 0 10-8.5 12.72zm-5.51-15.702A12.016 12.016 0 0136.6 30.098a12.016 12.016 0 01-19.596 3.898 12.015 12.015 0 010-16.992zm23.175-1.73a2.84 2.84 0 10-3.898-4.132 2.84 2.84 0 003.898 4.133z" fill="#fff"/></svg>