<svg width="52" height="35" fill="none" xmlns="http://www.w3.org/2000/svg"><path fill-rule="evenodd" clip-rule="evenodd" d="M26.192 7.705c2.958-4 6.228-7.15 10.41-7.15 7.896 0 14.398 10.05 14.401 22.016 0 7.3-3.143 11.874-8.788 11.874-4.918 0-7.634-2.76-12.508-10.914l-2.126-3.58-.376-.628a174.996 174.996 0 00-1.69-2.795l-3.754 6.63c-5.333 9.323-8.335 11.287-12.504 11.287C3.462 34.445 0 29.935 0 22.782 0 11.354 6.36.555 14.656.555c1.017 0 1.992.124 2.945.39.989.273 1.948.7 2.91 1.296 1.84 1.145 3.679 2.917 5.68 5.464zm4.832 7.089a103.557 103.557 0 00-2.317-3.612l-.02-.025c2.694-4.16 4.919-6.229 7.561-6.229 5.492 0 9.888 8.087 9.888 18.02 0 3.786-1.243 5.982-3.81 5.982-2.463 0-3.64-1.625-8.319-9.148l-2.986-4.988h.003zM15.447 6.152c2.31.32 4.414 2.021 7.458 6.379a675.937 675.937 0 00-5.211 8.105c-4.326 6.777-5.82 8.297-8.227 8.297-2.477 0-3.953-2.173-3.953-6.056 0-8.294 4.138-16.779 9.072-16.779.29 0 .577.02.86.058v-.004z" fill="#fff"/></svg>