<svg width="52" height="35" fill="none" xmlns="http://www.w3.org/2000/svg"><path d="M49.94 5.827a5.92 5.92 0 00-1.627-2.698 6.481 6.481 0 00-2.843-1.577C41.479.5 25.49.5 25.49.5a162.788 162.788 0 00-19.953.999 6.715 6.715 0 00-2.843 1.615A6.155 6.155 0 001.04 5.825 61.817 61.817 0 00.003 17.5 61.761 61.761 0 001.04 29.175a6.007 6.007 0 001.647 2.696 6.578 6.578 0 002.85 1.58C9.58 34.5 25.49 34.5 25.49 34.5c6.674.076 13.347-.258 19.98-.999a6.48 6.48 0 002.843-1.576 5.907 5.907 0 001.626-2.7 60.305 60.305 0 001.064-11.676 56.488 56.488 0 00-1.062-11.724v.002zM20.409 24.776v-14.55l13.302 7.276-13.303 7.274z" fill="#fff"/></svg>